<svg xmlns="http://www.w3.org/2000/svg" viewBox="0 0 512 512" width="512" height="512">
  <style>
    path { fill: #1e90ff; }
    @media (prefers-color-scheme: dark) {
      path { fill: #ff4757; }
    }
  </style>
  <path d="M442.7,137.6V53.5h-84.1V11.9h-31.7v41.6h-41.6v31.7h41.6v52.4h31.7v-52.4h52.4v52.4h31.7v-52.4h52.4v-31.7h-52.4Z"/>
  <path d="M137.4,201.4h31.7v-31.7h31.7v-31.7h-31.7v-31.7h-31.7v31.7h-31.7v31.7h31.7v31.7Z"/>
  <path d="M496.3,233.1h-48.6c-8.8,0-15.9,7.1-15.9,15.9v190.2c0,8.8,7.1,15.9,15.9,15.9h48.6c8.8,0,15.9-7.1,15.9-15.9V248.9c0-8.8-7.1-15.9-15.9-15.9Z"/>
  <path d="M400.1,500.6c0.4-1,0.6-2.1,0.6-3.2V200.3c0-6.9-7.1-11.5-13.4-8.7l-124.9,54.5h-112.9L24.6,191.6c-6.3-2.8-13.4,1.8-13.4,8.7v297.1c0,6.9,7.1,11.5,13.4,8.7l124.9-54.5h112.9l124.9,54.5c4.5,2,9.6-0.2,12.8-5.5Z"/>
</svg>
